<svg xmlns="http://www.w3.org/2000/svg" viewBox="0 -0.5 12 15" shape-rendering="crispEdges">
<path stroke="#111" d="M0 0h12M1 1h1M9 1h1M1 2h1M9 2h1M1 3h1M9 3h1M0 4h12M5 5h1M9 5h1M5 6h1M9 6h1M5 7h1M9 7h1M0 8h12M1 9h1M9 9h1M1 10h1M9 10h1M1 11h1M9 11h1M0 12h12M2 13h1M10 13h1M3 14h1M11 14h1" />
<path stroke="#f11" d="M0 1h1M2 1h7M10 1h2M0 2h1M2 2h7M10 2h2M0 3h1M2 3h7M10 3h2M0 5h5M6 5h3M10 5h2M0 6h5M6 6h3M10 6h2M0 7h5M6 7h3M10 7h2M0 9h1M2 9h7M10 9h2M0 10h1M2 10h7M10 10h2M0 11h1M2 11h7M10 11h2M0 13h2M3 13h7M11 13h1M0 14h3M4 14h7" />
</svg>