<svg xmlns="http://www.w3.org/2000/svg" viewBox="0 -0.5 115 16" shape-rendering="crispEdges">
<path stroke="#aaa" d="M0 0h3M5 0h3M105 0h5M112 0h3M0 1h2M6 1h2M106 1h3M113 1h2M0 2h2M6 2h1M108 2h1M113 2h2M0 3h1M114 3h1M0 6h1M114 6h1M0 7h1M114 7h1M0 8h1M6 8h2M108 8h1M114 8h1M0 9h1M6 9h2M108 9h1M114 9h1M0 10h1M6 10h2M108 10h1M114 10h1M0 11h1M7 11h1M114 11h1M0 12h1M3 12h1M6 12h2M108 12h1M111 12h1M114 12h1M0 13h9M108 13h7M0 14h10M108 14h7M0 15h11M108 15h7" />
<path stroke="#111" d="M3 0h2M8 0h97M110 0h2M2 1h1M5 1h1M8 1h1M10 1h1M18 1h1M20 1h1M22 1h1M30 1h1M32 1h1M34 1h1M42 1h1M44 1h1M46 1h1M54 1h1M56 1h1M58 1h1M66 1h1M68 1h1M70 1h1M78 1h1M80 1h1M82 1h1M90 1h1M92 1h1M94 1h1M102 1h1M104 1h2M109 1h1M112 1h1M2 2h1M5 2h1M7 2h2M10 2h9M20 2h1M22 2h9M32 2h1M34 2h9M44 2h1M46 2h9M56 2h1M58 2h9M68 2h1M70 2h9M80 2h1M82 2h9M92 2h1M94 2h9M104 2h1M106 2h2M109 2h1M112 2h1M1 3h2M4 3h3M8 3h1M10 3h1M12 3h1M16 3h1M18 3h1M20 3h1M22 3h1M24 3h1M28 3h1M30 3h1M32 3h1M34 3h1M36 3h1M40 3h1M42 3h1M44 3h1M46 3h1M48 3h1M52 3h1M54 3h1M56 3h1M58 3h1M60 3h1M64 3h1M66 3h1M68 3h1M70 3h1M72 3h1M76 3h1M78 3h1M80 3h1M82 3h1M84 3h1M88 3h1M90 3h1M92 3h1M94 3h1M96 3h1M100 3h1M102 3h1M104 3h3M108 3h3M112 3h2M0 4h1M8 4h1M10 4h2M13 4h1M15 4h1M17 4h2M20 4h1M22 4h2M25 4h1M27 4h1M29 4h2M32 4h1M34 4h2M37 4h1M39 4h1M41 4h2M44 4h1M46 4h2M49 4h1M51 4h1M53 4h2M56 4h1M58 4h2M61 4h1M63 4h1M65 4h2M68 4h1M70 4h2M73 4h1M75 4h1M77 4h2M80 4h1M82 4h2M85 4h1M87 4h1M89 4h2M92 4h1M94 4h2M97 4h1M99 4h1M101 4h2M104 4h1M106 4h1M114 4h1M0 5h1M5 5h4M10 5h1M12 5h1M14 5h1M16 5h1M18 5h1M20 5h1M22 5h1M24 5h1M26 5h1M28 5h1M30 5h1M32 5h1M34 5h1M36 5h1M38 5h1M40 5h1M42 5h1M44 5h1M46 5h1M48 5h1M50 5h1M52 5h1M54 5h1M56 5h1M58 5h1M60 5h1M62 5h1M64 5h1M66 5h1M68 5h1M70 5h1M72 5h1M74 5h1M76 5h1M78 5h1M80 5h1M82 5h1M84 5h1M86 5h1M88 5h1M90 5h1M92 5h1M94 5h1M96 5h1M98 5h1M100 5h1M102 5h1M104 5h2M107 5h3M114 5h1M1 6h1M8 6h1M10 6h1M13 6h1M15 6h1M18 6h1M20 6h1M22 6h1M25 6h1M27 6h1M30 6h1M32 6h1M34 6h1M37 6h1M39 6h1M42 6h1M44 6h1M46 6h1M49 6h1M51 6h1M54 6h1M56 6h1M58 6h1M61 6h1M63 6h1M66 6h1M68 6h1M70 6h1M73 6h1M75 6h1M78 6h1M80 6h1M82 6h1M85 6h1M87 6h1M90 6h1M92 6h1M94 6h1M97 6h1M99 6h1M102 6h1M104 6h1M106 6h1M113 6h1M1 7h1M5 7h4M10 7h1M12 7h1M14 7h1M16 7h1M18 7h1M20 7h1M22 7h1M24 7h1M26 7h1M28 7h1M30 7h1M32 7h1M34 7h1M36 7h1M38 7h1M40 7h1M42 7h1M44 7h1M46 7h1M48 7h1M50 7h1M52 7h1M54 7h1M56 7h1M58 7h1M60 7h1M62 7h1M64 7h1M66 7h1M68 7h1M70 7h1M72 7h1M74 7h1M76 7h1M78 7h1M80 7h1M82 7h1M84 7h1M86 7h1M88 7h1M90 7h1M92 7h1M94 7h1M96 7h1M98 7h1M100 7h1M102 7h1M104 7h2M107 7h3M113 7h1M1 8h1M3 8h1M5 8h1M8 8h1M10 8h2M13 8h1M15 8h1M17 8h2M20 8h1M22 8h2M25 8h1M27 8h1M29 8h2M32 8h1M34 8h2M37 8h1M39 8h1M41 8h2M44 8h1M46 8h2M49 8h1M51 8h1M53 8h2M56 8h1M58 8h2M61 8h1M63 8h1M65 8h2M68 8h1M70 8h2M73 8h1M75 8h1M77 8h2M80 8h1M82 8h2M85 8h1M87 8h1M89 8h2M92 8h1M94 8h2M97 8h1M99 8h1M101 8h2M104 8h1M106 8h2M109 8h1M111 8h1M113 8h1M1 9h1M3 9h1M5 9h1M8 9h1M10 9h1M12 9h1M16 9h1M18 9h1M20 9h1M22 9h1M24 9h1M28 9h1M30 9h1M32 9h1M34 9h1M36 9h1M40 9h1M42 9h1M44 9h1M46 9h1M48 9h1M52 9h1M54 9h1M56 9h1M58 9h1M60 9h1M64 9h1M66 9h1M68 9h1M70 9h1M72 9h1M76 9h1M78 9h1M80 9h1M82 9h1M84 9h1M88 9h1M90 9h1M92 9h1M94 9h1M96 9h1M100 9h1M102 9h1M104 9h2M107 9h1M109 9h1M111 9h1M113 9h1M1 10h1M3 10h1M5 10h1M8 10h1M10 10h9M20 10h1M22 10h9M32 10h1M34 10h9M44 10h1M46 10h9M56 10h1M58 10h9M68 10h1M70 10h9M80 10h1M82 10h9M92 10h1M94 10h9M104 10h1M106 10h2M109 10h1M111 10h1M113 10h1M1 11h1M3 11h1M6 11h1M8 11h1M10 11h1M18 11h1M20 11h1M22 11h1M30 11h1M32 11h1M34 11h1M42 11h1M44 11h1M46 11h1M54 11h1M56 11h1M58 11h1M66 11h1M68 11h1M70 11h1M78 11h1M80 11h1M82 11h1M90 11h1M92 11h1M94 11h1M102 11h1M104 11h2M107 11h2M111 11h1M113 11h1M1 12h2M4 12h2M8 12h97M106 12h2M109 12h2M112 12h2M9 13h1M11 13h1M13 13h1M15 13h1M17 13h1M19 13h1M21 13h1M23 13h1M25 13h1M27 13h1M29 13h1M31 13h1M33 13h1M35 13h1M37 13h1M39 13h1M41 13h1M43 13h1M45 13h1M47 13h1M49 13h1M51 13h1M53 13h1M55 13h1M57 13h1M59 13h1M61 13h1M63 13h1M65 13h1M67 13h1M69 13h1M71 13h1M73 13h1M75 13h1M77 13h1M79 13h1M81 13h1M83 13h1M85 13h1M87 13h1M89 13h1M91 13h1M93 13h1M95 13h1M97 13h1M99 13h1M101 13h1M103 13h1M105 13h1M107 13h1M10 14h1M12 14h1M14 14h1M16 14h1M18 14h1M20 14h1M22 14h1M24 14h1M26 14h1M28 14h1M30 14h1M32 14h1M34 14h1M36 14h1M38 14h1M40 14h1M42 14h1M44 14h1M46 14h1M48 14h1M50 14h1M52 14h1M54 14h1M56 14h1M58 14h1M60 14h1M62 14h1M64 14h1M66 14h1M68 14h1M70 14h1M72 14h1M74 14h1M76 14h1M78 14h1M80 14h1M82 14h1M84 14h1M86 14h1M88 14h1M90 14h1M92 14h1M94 14h1M96 14h1M98 14h1M100 14h1M102 14h1M104 14h1M106 14h2M11 15h97" />
<path stroke="#ff1" d="M3 1h2M110 1h2M3 2h2M110 2h2M3 3h1M7 3h1M107 3h1M111 3h1M1 4h7M107 4h7M1 5h4M110 5h4M2 6h6M107 6h6M2 7h3M110 7h3M2 8h1M4 8h1M110 8h1M112 8h1M2 9h1M4 9h1M110 9h1M112 9h1M2 10h1M4 10h1M110 10h1M112 10h1M2 11h1M4 11h2M109 11h2M112 11h1" />
<path stroke="#1fa" d="M9 1h1M11 1h7M19 1h1M21 1h1M23 1h7M31 1h1M33 1h1M35 1h7M43 1h1M45 1h1M47 1h7M55 1h1M57 1h1M59 1h7M67 1h1M69 1h1M71 1h7M79 1h1M81 1h1M83 1h7M91 1h1M93 1h1M95 1h7M103 1h1M9 2h1M19 2h1M21 2h1M31 2h1M33 2h1M43 2h1M45 2h1M55 2h1M57 2h1M67 2h1M69 2h1M79 2h1M81 2h1M91 2h1M93 2h1M103 2h1M105 2h1M9 3h1M11 3h1M13 3h3M17 3h1M19 3h1M21 3h1M23 3h1M25 3h3M29 3h1M31 3h1M33 3h1M35 3h1M37 3h3M41 3h1M43 3h1M45 3h1M47 3h1M49 3h3M53 3h1M55 3h1M57 3h1M59 3h1M61 3h3M65 3h1M67 3h1M69 3h1M71 3h1M73 3h3M77 3h1M79 3h1M81 3h1M83 3h1M85 3h3M89 3h1M91 3h1M93 3h1M95 3h1M97 3h3M101 3h1M103 3h1M9 4h1M12 4h1M14 4h1M16 4h1M19 4h1M21 4h1M24 4h1M26 4h1M28 4h1M31 4h1M33 4h1M36 4h1M38 4h1M40 4h1M43 4h1M45 4h1M48 4h1M50 4h1M52 4h1M55 4h1M57 4h1M60 4h1M62 4h1M64 4h1M67 4h1M69 4h1M72 4h1M74 4h1M76 4h1M79 4h1M81 4h1M84 4h1M86 4h1M88 4h1M91 4h1M93 4h1M96 4h1M98 4h1M100 4h1M103 4h1M105 4h1M9 5h1M11 5h1M13 5h1M15 5h1M17 5h1M19 5h1M21 5h1M23 5h1M25 5h1M27 5h1M29 5h1M31 5h1M33 5h1M35 5h1M37 5h1M39 5h1M41 5h1M43 5h1M45 5h1M47 5h1M49 5h1M51 5h1M53 5h1M55 5h1M57 5h1M59 5h1M61 5h1M63 5h1M65 5h1M67 5h1M69 5h1M71 5h1M73 5h1M75 5h1M77 5h1M79 5h1M81 5h1M83 5h1M85 5h1M87 5h1M89 5h1M91 5h1M93 5h1M95 5h1M97 5h1M99 5h1M101 5h1M103 5h1M106 5h1M9 6h1M11 6h2M14 6h1M16 6h2M19 6h1M21 6h1M23 6h2M26 6h1M28 6h2M31 6h1M33 6h1M35 6h2M38 6h1M40 6h2M43 6h1M45 6h1M47 6h2M50 6h1M52 6h2M55 6h1M57 6h1M59 6h2M62 6h1M64 6h2M67 6h1M69 6h1M71 6h2M74 6h1M76 6h2M79 6h1M81 6h1M83 6h2M86 6h1M88 6h2M91 6h1M93 6h1M95 6h2M98 6h1M100 6h2M103 6h1M105 6h1M9 7h1M11 7h1M13 7h1M15 7h1M17 7h1M19 7h1M21 7h1M23 7h1M25 7h1M27 7h1M29 7h1M31 7h1M33 7h1M35 7h1M37 7h1M39 7h1M41 7h1M43 7h1M45 7h1M47 7h1M49 7h1M51 7h1M53 7h1M55 7h1M57 7h1M59 7h1M61 7h1M63 7h1M65 7h1M67 7h1M69 7h1M71 7h1M73 7h1M75 7h1M77 7h1M79 7h1M81 7h1M83 7h1M85 7h1M87 7h1M89 7h1M91 7h1M93 7h1M95 7h1M97 7h1M99 7h1M101 7h1M103 7h1M106 7h1M9 8h1M12 8h1M14 8h1M16 8h1M19 8h1M21 8h1M24 8h1M26 8h1M28 8h1M31 8h1M33 8h1M36 8h1M38 8h1M40 8h1M43 8h1M45 8h1M48 8h1M50 8h1M52 8h1M55 8h1M57 8h1M60 8h1M62 8h1M64 8h1M67 8h1M69 8h1M72 8h1M74 8h1M76 8h1M79 8h1M81 8h1M84 8h1M86 8h1M88 8h1M91 8h1M93 8h1M96 8h1M98 8h1M100 8h1M103 8h1M105 8h1M9 9h1M11 9h1M13 9h3M17 9h1M19 9h1M21 9h1M23 9h1M25 9h3M29 9h1M31 9h1M33 9h1M35 9h1M37 9h3M41 9h1M43 9h1M45 9h1M47 9h1M49 9h3M53 9h1M55 9h1M57 9h1M59 9h1M61 9h3M65 9h1M67 9h1M69 9h1M71 9h1M73 9h3M77 9h1M79 9h1M81 9h1M83 9h1M85 9h3M89 9h1M91 9h1M93 9h1M95 9h1M97 9h3M101 9h1M103 9h1M106 9h1M9 10h1M19 10h1M21 10h1M31 10h1M33 10h1M43 10h1M45 10h1M55 10h1M57 10h1M67 10h1M69 10h1M79 10h1M81 10h1M91 10h1M93 10h1M103 10h1M105 10h1M9 11h1M11 11h7M19 11h1M21 11h1M23 11h7M31 11h1M33 11h1M35 11h7M43 11h1M45 11h1M47 11h7M55 11h1M57 11h1M59 11h7M67 11h1M69 11h1M71 11h7M79 11h1M81 11h1M83 11h7M91 11h1M93 11h1M95 11h7M103 11h1M106 11h1M105 12h1M10 13h1M12 13h1M14 13h1M16 13h1M18 13h1M20 13h1M22 13h1M24 13h1M26 13h1M28 13h1M30 13h1M32 13h1M34 13h1M36 13h1M38 13h1M40 13h1M42 13h1M44 13h1M46 13h1M48 13h1M50 13h1M52 13h1M54 13h1M56 13h1M58 13h1M60 13h1M62 13h1M64 13h1M66 13h1M68 13h1M70 13h1M72 13h1M74 13h1M76 13h1M78 13h1M80 13h1M82 13h1M84 13h1M86 13h1M88 13h1M90 13h1M92 13h1M94 13h1M96 13h1M98 13h1M100 13h1M102 13h1M104 13h1M106 13h1M11 14h1M13 14h1M15 14h1M17 14h1M19 14h1M21 14h1M23 14h1M25 14h1M27 14h1M29 14h1M31 14h1M33 14h1M35 14h1M37 14h1M39 14h1M41 14h1M43 14h1M45 14h1M47 14h1M49 14h1M51 14h1M53 14h1M55 14h1M57 14h1M59 14h1M61 14h1M63 14h1M65 14h1M67 14h1M69 14h1M71 14h1M73 14h1M75 14h1M77 14h1M79 14h1M81 14h1M83 14h1M85 14h1M87 14h1M89 14h1M91 14h1M93 14h1M95 14h1M97 14h1M99 14h1M101 14h1M103 14h1M105 14h1" />
</svg>